# xmcd CD database file
#
# Track frame offsets:
#	150
#	21060
#	43798
#	64659
#
# Disc length: 1161 seconds
#
# Revision: 1
# Processed by: cddbd v1.5.2PL0 Copyright (c) Steve Scherf et al.
# Submitted via: CDex 1.70beta2
#
DISCID=2c048704
DTITLE=JAM Project - TRANSFORMERS EVO.
DYEAR=2010
DGENRE=seiyu
TTITLE0=TRANSFORMERS EVO.
TTITLE1=PRAISE BE TO DECEPTICON
TTITLE2=TRANSFORMERS EVO.(off vocal)
TTITLE3=PRAISE BE TO DECEPTICON (off vocal)
EXTD=YEAR: 2010
EXTT0=
EXTT1=
EXTT2=
EXTT3=
PLAYORDER=
